<svg width="714" height="49" viewBox="0 0 714 49" fill="none" xmlns="http://www.w3.org/2000/svg">
<path d="M24.752 48.768C20.1867 48.768 16.048 47.7867 12.336 45.824C8.66667 43.8187 5.76533 41.0667 3.632 37.568C1.54133 34.0267 0.496 30.0373 0.496 25.6C0.496 21.1627 1.54133 17.1947 3.632 13.696C5.76533 10.1547 8.66667 7.40267 12.336 5.44C16.048 3.43467 20.208 2.432 24.816 2.432C28.6987 2.432 32.1973 3.11467 35.312 4.48C38.4693 5.84533 41.1147 7.808 43.248 10.368L36.592 16.512C33.5627 13.0133 29.808 11.264 25.328 11.264C22.5547 11.264 20.08 11.8827 17.904 13.12C15.728 14.3147 14.0213 16 12.784 18.176C11.5893 20.352 10.992 22.8267 10.992 25.6C10.992 28.3733 11.5893 30.848 12.784 33.024C14.0213 35.2 15.728 36.9067 17.904 38.144C20.08 39.3387 22.5547 39.936 25.328 39.936C29.808 39.936 33.5627 38.1653 36.592 34.624L43.248 40.768C41.1147 43.3707 38.4693 45.3547 35.312 46.72C32.1547 48.0853 28.6347 48.768 24.752 48.768ZM64.742 48.512C61.1153 48.512 57.8513 47.7653 54.95 46.272C52.0913 44.736 49.8513 42.624 48.23 39.936C46.6087 37.248 45.798 34.1973 45.798 30.784C45.798 27.3707 46.6087 24.32 48.23 21.632C49.8513 18.944 52.0913 16.8533 54.95 15.36C57.8513 13.824 61.1153 13.056 64.742 13.056C68.3687 13.056 71.6113 13.824 74.47 15.36C77.3287 16.8533 79.5687 18.944 81.19 21.632C82.8113 24.32 83.622 27.3707 83.622 30.784C83.622 34.1973 82.8113 37.248 81.19 39.936C79.5687 42.624 77.3287 44.736 74.47 46.272C71.6113 47.7653 68.3687 48.512 64.742 48.512ZM64.742 40.32C67.302 40.32 69.3927 39.4667 71.014 37.76C72.678 36.0107 73.51 33.6853 73.51 30.784C73.51 27.8827 72.678 25.5787 71.014 23.872C69.3927 22.1227 67.302 21.248 64.742 21.248C62.182 21.248 60.07 22.1227 58.406 23.872C56.742 25.5787 55.91 27.8827 55.91 30.784C55.91 33.6853 56.742 36.0107 58.406 37.76C60.07 39.4667 62.182 40.32 64.742 40.32ZM111.224 13.056C115.49 13.056 118.925 14.336 121.528 16.896C124.173 19.456 125.496 23.2533 125.496 28.288V48H115.512V29.824C115.512 27.0933 114.914 25.0667 113.72 23.744C112.525 22.3787 110.797 21.696 108.536 21.696C106.018 21.696 104.013 22.4853 102.52 24.064C101.026 25.6 100.28 27.904 100.28 30.976V48H90.2955V13.568H99.8315V17.6C101.154 16.1493 102.797 15.04 104.76 14.272C106.722 13.4613 108.877 13.056 111.224 13.056ZM156.754 46.336C155.772 47.0613 154.556 47.616 153.106 48C151.698 48.3413 150.204 48.512 148.626 48.512C144.53 48.512 141.351 47.4667 139.09 45.376C136.871 43.2853 135.762 40.2133 135.762 36.16V22.016H130.45V14.336H135.762V5.952H145.746V14.336H154.322V22.016H145.746V36.032C145.746 37.4827 146.108 38.6133 146.833 39.424C147.602 40.192 148.668 40.576 150.034 40.576C151.612 40.576 152.956 40.1493 154.066 39.296L156.754 46.336ZM176.246 13.056C181.579 13.056 185.675 14.336 188.534 16.896C191.393 19.4133 192.822 23.232 192.822 28.352V48H183.478V43.712C181.601 46.912 178.102 48.512 172.982 48.512C170.337 48.512 168.033 48.064 166.07 47.168C164.15 46.272 162.678 45.0347 161.654 43.456C160.63 41.8773 160.118 40.0853 160.118 38.08C160.118 34.88 161.313 32.3627 163.702 30.528C166.134 28.6933 169.867 27.776 174.902 27.776H182.838C182.838 25.6 182.177 23.936 180.854 22.784C179.531 21.5893 177.547 20.992 174.902 20.992C173.067 20.992 171.254 21.2907 169.462 21.888C167.713 22.4427 166.219 23.2107 164.982 24.192L161.398 17.216C163.275 15.8933 165.515 14.8693 168.118 14.144C170.763 13.4187 173.473 13.056 176.246 13.056ZM175.478 41.792C177.185 41.792 178.699 41.408 180.022 40.64C181.345 39.8293 182.283 38.656 182.838 37.12V33.6H175.99C171.894 33.6 169.846 34.944 169.846 37.632C169.846 38.912 170.337 39.936 171.318 40.704C172.342 41.4293 173.729 41.792 175.478 41.792ZM237.305 0.511997V48H227.769V44.032C225.294 47.0187 221.71 48.512 217.017 48.512C213.774 48.512 210.83 47.7867 208.185 46.336C205.582 44.8853 203.534 42.816 202.041 40.128C200.548 37.44 199.801 34.3253 199.801 30.784C199.801 27.2427 200.548 24.128 202.041 21.44C203.534 18.752 205.582 16.6827 208.185 15.232C210.83 13.7813 213.774 13.056 217.017 13.056C221.412 13.056 224.846 14.4427 227.321 17.216V0.511997H237.305ZM218.745 40.32C221.262 40.32 223.353 39.4667 225.017 37.76C226.681 36.0107 227.513 33.6853 227.513 30.784C227.513 27.8827 226.681 25.5787 225.017 23.872C223.353 22.1227 221.262 21.248 218.745 21.248C216.185 21.248 214.073 22.1227 212.409 23.872C210.745 25.5787 209.913 27.8827 209.913 30.784C209.913 33.6853 210.745 36.0107 212.409 37.76C214.073 39.4667 216.185 40.32 218.745 40.32ZM262.93 48.512C259.303 48.512 256.039 47.7653 253.138 46.272C250.279 44.736 248.039 42.624 246.418 39.936C244.796 37.248 243.986 34.1973 243.986 30.784C243.986 27.3707 244.796 24.32 246.418 21.632C248.039 18.944 250.279 16.8533 253.138 15.36C256.039 13.824 259.303 13.056 262.93 13.056C266.556 13.056 269.799 13.824 272.658 15.36C275.516 16.8533 277.756 18.944 279.378 21.632C280.999 24.32 281.81 27.3707 281.81 30.784C281.81 34.1973 280.999 37.248 279.378 39.936C277.756 42.624 275.516 44.736 272.658 46.272C269.799 47.7653 266.556 48.512 262.93 48.512ZM262.93 40.32C265.49 40.32 267.58 39.4667 269.202 37.76C270.866 36.0107 271.698 33.6853 271.698 30.784C271.698 27.8827 270.866 25.5787 269.202 23.872C267.58 22.1227 265.49 21.248 262.93 21.248C260.37 21.248 258.258 22.1227 256.594 23.872C254.93 25.5787 254.098 27.8827 254.098 30.784C254.098 33.6853 254.93 36.0107 256.594 37.76C258.258 39.4667 260.37 40.32 262.93 40.32ZM298.019 18.112C299.214 16.448 300.814 15.1893 302.819 14.336C304.867 13.4827 307.214 13.056 309.859 13.056V22.272C308.75 22.1867 308.003 22.144 307.619 22.144C304.76 22.144 302.52 22.9547 300.899 24.576C299.278 26.1547 298.467 28.544 298.467 31.744V48H288.483V13.568H298.019V18.112ZM369.243 0.511997V48H359.707V44.032C357.232 47.0187 353.648 48.512 348.955 48.512C345.712 48.512 342.768 47.7867 340.123 46.336C337.52 44.8853 335.472 42.816 333.979 40.128C332.485 37.44 331.739 34.3253 331.739 30.784C331.739 27.2427 332.485 24.128 333.979 21.44C335.472 18.752 337.52 16.6827 340.123 15.232C342.768 13.7813 345.712 13.056 348.955 13.056C353.349 13.056 356.784 14.4427 359.259 17.216V0.511997H369.243ZM350.683 40.32C353.2 40.32 355.291 39.4667 356.955 37.76C358.619 36.0107 359.451 33.6853 359.451 30.784C359.451 27.8827 358.619 25.5787 356.955 23.872C355.291 22.1227 353.2 21.248 350.683 21.248C348.123 21.248 346.011 22.1227 344.347 23.872C342.683 25.5787 341.851 27.8827 341.851 30.784C341.851 33.6853 342.683 36.0107 344.347 37.76C346.011 39.4667 348.123 40.32 350.683 40.32ZM412.211 30.912C412.211 31.04 412.147 31.936 412.019 33.6H385.971C386.44 35.7333 387.55 37.4187 389.299 38.656C391.048 39.8933 393.224 40.512 395.827 40.512C397.619 40.512 399.198 40.256 400.563 39.744C401.971 39.1893 403.272 38.336 404.467 37.184L409.779 42.944C406.536 46.656 401.8 48.512 395.571 48.512C391.688 48.512 388.254 47.7653 385.267 46.272C382.28 44.736 379.976 42.624 378.355 39.936C376.734 37.248 375.923 34.1973 375.923 30.784C375.923 27.4133 376.712 24.384 378.291 21.696C379.912 18.9653 382.11 16.8533 384.883 15.36C387.699 13.824 390.835 13.056 394.291 13.056C397.662 13.056 400.712 13.7813 403.443 15.232C406.174 16.6827 408.307 18.7733 409.843 21.504C411.422 24.192 412.211 27.328 412.211 30.912ZM394.355 20.608C392.094 20.608 390.195 21.248 388.659 22.528C387.123 23.808 386.184 25.5573 385.843 27.776H402.803C402.462 25.6 401.523 23.872 399.987 22.592C398.451 21.2693 396.574 20.608 394.355 20.608ZM457.079 3.2C461.047 3.2 464.482 3.86133 467.383 5.184C470.327 6.50667 472.588 8.384 474.167 10.816C475.746 13.248 476.535 16.128 476.535 19.456C476.535 22.7413 475.746 25.6213 474.167 28.096C472.588 30.528 470.327 32.4053 467.383 33.728C464.482 35.008 461.047 35.648 457.079 35.648H448.055V48H437.687V3.2H457.079ZM456.503 27.2C459.618 27.2 461.986 26.5387 463.607 25.216C465.228 23.8507 466.039 21.9307 466.039 19.456C466.039 16.9387 465.228 15.0187 463.607 13.696C461.986 12.3307 459.618 11.648 456.503 11.648H448.055V27.2H456.503ZM496.809 13.056C502.142 13.056 506.238 14.336 509.097 16.896C511.955 19.4133 513.385 23.232 513.385 28.352V48H504.041V43.712C502.163 46.912 498.665 48.512 493.545 48.512C490.899 48.512 488.595 48.064 486.633 47.168C484.713 46.272 483.241 45.0347 482.217 43.456C481.193 41.8773 480.681 40.0853 480.681 38.08C480.681 34.88 481.875 32.3627 484.265 30.528C486.697 28.6933 490.43 27.776 495.465 27.776H503.401C503.401 25.6 502.739 23.936 501.417 22.784C500.094 21.5893 498.11 20.992 495.465 20.992C493.63 20.992 491.817 21.2907 490.025 21.888C488.275 22.4427 486.782 23.2107 485.545 24.192L481.961 17.216C483.838 15.8933 486.078 14.8693 488.681 14.144C491.326 13.4187 494.035 13.056 496.809 13.056ZM496.041 41.792C497.747 41.792 499.262 41.408 500.585 40.64C501.907 39.8293 502.846 38.656 503.401 37.12V33.6H496.553C492.457 33.6 490.409 34.944 490.409 37.632C490.409 38.912 490.899 39.936 491.881 40.704C492.905 41.4293 494.291 41.792 496.041 41.792ZM522.421 0.511997H532.405V48H522.421V0.511997ZM555.559 13.056C560.892 13.056 564.988 14.336 567.847 16.896C570.705 19.4133 572.135 23.232 572.135 28.352V48H562.791V43.712C560.913 46.912 557.415 48.512 552.295 48.512C549.649 48.512 547.345 48.064 545.383 47.168C543.463 46.272 541.991 45.0347 540.967 43.456C539.943 41.8773 539.431 40.0853 539.431 38.08C539.431 34.88 540.625 32.3627 543.015 30.528C545.447 28.6933 549.18 27.776 554.215 27.776H562.151C562.151 25.6 561.489 23.936 560.167 22.784C558.844 21.5893 556.86 20.992 554.215 20.992C552.38 20.992 550.567 21.2907 548.775 21.888C547.025 22.4427 545.532 23.2107 544.295 24.192L540.711 17.216C542.588 15.8933 544.828 14.8693 547.431 14.144C550.076 13.4187 552.785 13.056 555.559 13.056ZM554.791 41.792C556.497 41.792 558.012 41.408 559.335 40.64C560.657 39.8293 561.596 38.656 562.151 37.12V33.6H555.303C551.207 33.6 549.159 34.944 549.159 37.632C549.159 38.912 549.649 39.936 550.631 40.704C551.655 41.4293 553.041 41.792 554.791 41.792ZM614.722 13.568L600.194 48H589.89L575.425 13.568H585.73L595.266 36.992L605.122 13.568H614.722ZM628.332 18.112C629.526 16.448 631.126 15.1893 633.132 14.336C635.18 13.4827 637.526 13.056 640.172 13.056V22.272C639.062 22.1867 638.316 22.144 637.932 22.144C635.073 22.144 632.833 22.9547 631.212 24.576C629.59 26.1547 628.78 28.544 628.78 31.744V48H618.796V13.568H628.332V18.112ZM659.809 13.056C665.142 13.056 669.238 14.336 672.097 16.896C674.955 19.4133 676.385 23.232 676.385 28.352V48H667.041V43.712C665.163 46.912 661.665 48.512 656.545 48.512C653.899 48.512 651.595 48.064 649.633 47.168C647.713 46.272 646.241 45.0347 645.217 43.456C644.193 41.8773 643.681 40.0853 643.681 38.08C643.681 34.88 644.875 32.3627 647.265 30.528C649.697 28.6933 653.43 27.776 658.465 27.776H666.401C666.401 25.6 665.739 23.936 664.417 22.784C663.094 21.5893 661.11 20.992 658.465 20.992C656.63 20.992 654.817 21.2907 653.025 21.888C651.275 22.4427 649.782 23.2107 648.545 24.192L644.961 17.216C646.838 15.8933 649.078 14.8693 651.681 14.144C654.326 13.4187 657.035 13.056 659.809 13.056ZM659.041 41.792C660.747 41.792 662.262 41.408 663.585 40.64C664.907 39.8293 665.846 38.656 666.401 37.12V33.6H659.553C655.457 33.6 653.409 34.944 653.409 37.632C653.409 38.912 653.899 39.936 654.881 40.704C655.905 41.4293 657.291 41.792 659.041 41.792ZM697.005 48.512C694.146 48.512 691.351 48.1707 688.621 47.488C685.89 46.7627 683.714 45.8667 682.093 44.8L685.421 37.632C686.957 38.6133 688.813 39.424 690.989 40.064C693.165 40.6613 695.298 40.96 697.389 40.96C701.613 40.96 703.725 39.9147 703.725 37.824C703.725 36.8427 703.149 36.1387 701.997 35.712C700.845 35.2853 699.074 34.9227 696.685 34.624C693.869 34.1973 691.543 33.7067 689.709 33.152C687.874 32.5973 686.274 31.616 684.909 30.208C683.586 28.8 682.924 26.7947 682.924 24.192C682.924 22.016 683.543 20.096 684.781 18.432C686.061 16.7253 687.895 15.4027 690.285 14.464C692.717 13.5253 695.575 13.056 698.861 13.056C701.293 13.056 703.703 13.3333 706.093 13.888C708.525 14.4 710.53 15.1253 712.109 16.064L708.781 23.168C705.751 21.4613 702.445 20.608 698.861 20.608C696.727 20.608 695.127 20.9067 694.061 21.504C692.994 22.1013 692.461 22.8693 692.461 23.808C692.461 24.8747 693.037 25.6213 694.189 26.048C695.341 26.4747 697.175 26.88 699.693 27.264C702.509 27.7333 704.813 28.2453 706.605 28.8C708.397 29.312 709.954 30.272 711.277 31.68C712.599 33.088 713.261 35.0507 713.261 37.568C713.261 39.7013 712.621 41.6 711.341 43.264C710.061 44.928 708.183 46.2293 705.709 47.168C703.277 48.064 700.375 48.512 697.005 48.512Z" fill="white"/>
</svg>
